<?xml version="1.0" encoding="UTF-8" standalone="no"?>
<!-- Generator: Adobe Illustrator 21.0.0, SVG Export Plug-In . SVG Version: 6.00 Build 0)  -->

<svg
   xmlns:dc="http://purl.org/dc/elements/1.1/"
   xmlns:cc="http://creativecommons.org/ns#"
   xmlns:rdf="http://www.w3.org/1999/02/22-rdf-syntax-ns#"
   xmlns:svg="http://www.w3.org/2000/svg"
   xmlns="http://www.w3.org/2000/svg"
   xmlns:sodipodi="http://sodipodi.sourceforge.net/DTD/sodipodi-0.dtd"
   xmlns:inkscape="http://www.inkscape.org/namespaces/inkscape"
   version="1.1"
   id="Layer_1"
   x="0px"
   y="0px"
   viewBox="0 0 512 512"
   style="enable-background:new 0 0 512 512;"
   xml:space="preserve"
   sodipodi:docname="experiment.svg"
   inkscape:version="0.92.4 (5da689c313, 2019-01-14)"><metadata
   id="metadata11"><rdf:RDF><cc:Work
       rdf:about=""><dc:format>image/svg+xml</dc:format><dc:type
         rdf:resource="http://purl.org/dc/dcmitype/StillImage" /></cc:Work></rdf:RDF></metadata><defs
   id="defs9" /><sodipodi:namedview
   pagecolor="#ffffff"
   bordercolor="#666666"
   borderopacity="1"
   objecttolerance="10"
   gridtolerance="10"
   guidetolerance="10"
   inkscape:pageopacity="0"
   inkscape:pageshadow="2"
   inkscape:window-width="1920"
   inkscape:window-height="1017"
   id="namedview7"
   showgrid="false"
   inkscape:zoom="0.4609375"
   inkscape:cx="256"
   inkscape:cy="256"
   inkscape:window-x="4472"
   inkscape:window-y="-8"
   inkscape:window-maximized="1"
   inkscape:current-layer="Layer_1" />
<g
   id="g4"
   style="fill:#ffffff">
	<path
   d="M256,231.1c0,14.1,11.4,25.5,25.5,25.5s25.5-11.4,25.5-25.5s-11.4-25.5-25.5-25.5S256,217,256,231.1z M490.3,456.4   L373.6,154.5V43.4h45.8V0H92.6v43.4h45.8v111.1L21.7,456.4c-1.8,4.7-2.7,9.7-2.7,14.7c0,22.5,18.3,40.9,40.9,40.9h392.4   c5,0,10-1,14.7-2.7C488,501.1,498.4,477.5,490.3,456.4z M181.7,162.6V44.7h148.5v117.9l58,150.2c-13.2-3.4-26.9-5.1-40.8-5.1   c-39.1,0-76.1,13.7-105.5,38.3c-21.7,18.1-49.1,28.1-77.4,28c-20.9,0-40.9-5.3-58.6-15.1L181.7,162.6z M63.5,468.6l26.6-68.8   c22.8,11.6,48.1,17.7,74.4,17.7c39.1,0,76.1-13.7,105.5-38.3c21.6-18,48.7-28,77.4-28c22.3,0,43.7,6.1,62.3,17.3l38.6,100.1H63.5z"
   id="path2"
   style="fill:#ffffff" />
</g>
</svg>