<?xml version="1.0" encoding="UTF-8" standalone="no"?>
<!-- Generator: Adobe Illustrator 18.1.1, SVG Export Plug-In . SVG Version: 6.00 Build 0)  -->

<svg
   xmlns:dc="http://purl.org/dc/elements/1.1/"
   xmlns:cc="http://creativecommons.org/ns#"
   xmlns:rdf="http://www.w3.org/1999/02/22-rdf-syntax-ns#"
   xmlns:svg="http://www.w3.org/2000/svg"
   xmlns="http://www.w3.org/2000/svg"
   xmlns:sodipodi="http://sodipodi.sourceforge.net/DTD/sodipodi-0.dtd"
   xmlns:inkscape="http://www.inkscape.org/namespaces/inkscape"
   version="1.1"
   id="Capa_1"
   x="0px"
   y="0px"
   viewBox="0 0 298.73 298.73"
   style="enable-background:new 0 0 298.73 298.73;"
   xml:space="preserve"
   sodipodi:docname="images.svg"
   inkscape:version="0.92.4 (5da689c313, 2019-01-14)"><metadata
   id="metadata41"><rdf:RDF><cc:Work
       rdf:about=""><dc:format>image/svg+xml</dc:format><dc:type
         rdf:resource="http://purl.org/dc/dcmitype/StillImage" /></cc:Work></rdf:RDF></metadata><defs
   id="defs39" /><sodipodi:namedview
   pagecolor="#ffffff"
   bordercolor="#666666"
   borderopacity="1"
   objecttolerance="10"
   gridtolerance="10"
   guidetolerance="10"
   inkscape:pageopacity="0"
   inkscape:pageshadow="2"
   inkscape:window-width="1920"
   inkscape:window-height="1017"
   id="namedview37"
   showgrid="false"
   inkscape:zoom="1.580022"
   inkscape:cx="149.92151"
   inkscape:cy="98.800931"
   inkscape:window-x="-8"
   inkscape:window-y="-8"
   inkscape:window-maximized="1"
   inkscape:current-layer="Capa_1" />
<g
   id="g4"
   style="fill:#ffffff">
	<path
   style="fill:#ffffff"
   d="M264.959,9.35H33.787C15.153,9.35,0,24.498,0,43.154v212.461c0,18.634,15.153,33.766,33.787,33.766   h231.171c18.634,0,33.771-15.132,33.771-33.766V43.154C298.73,24.498,283.593,9.35,264.959,9.35z M193.174,59.623   c18.02,0,32.634,14.615,32.634,32.634s-14.615,32.634-32.634,32.634c-18.025,0-32.634-14.615-32.634-32.634   S175.149,59.623,193.174,59.623z M254.363,258.149H149.362H49.039c-9.013,0-13.027-6.521-8.964-14.566l56.006-110.93   c4.058-8.044,11.792-8.762,17.269-1.605l56.316,73.596c5.477,7.158,15.05,7.767,21.386,1.354l13.777-13.951   c6.331-6.413,15.659-5.619,20.826,1.762l35.675,50.959C266.487,252.16,263.376,258.149,254.363,258.149z"
   id="path2" />
</g>
<g
   id="g6">
</g>
<g
   id="g8">
</g>
<g
   id="g10">
</g>
<g
   id="g12">
</g>
<g
   id="g14">
</g>
<g
   id="g16">
</g>
<g
   id="g18">
</g>
<g
   id="g20">
</g>
<g
   id="g22">
</g>
<g
   id="g24">
</g>
<g
   id="g26">
</g>
<g
   id="g28">
</g>
<g
   id="g30">
</g>
<g
   id="g32">
</g>
<g
   id="g34">
</g>
</svg>