<?xml version="1.0" encoding="UTF-8" standalone="no"?>
<!-- Generator: Adobe Illustrator 19.0.0, SVG Export Plug-In . SVG Version: 6.00 Build 0)  -->

<svg
   xmlns:dc="http://purl.org/dc/elements/1.1/"
   xmlns:cc="http://creativecommons.org/ns#"
   xmlns:rdf="http://www.w3.org/1999/02/22-rdf-syntax-ns#"
   xmlns:svg="http://www.w3.org/2000/svg"
   xmlns="http://www.w3.org/2000/svg"
   xmlns:sodipodi="http://sodipodi.sourceforge.net/DTD/sodipodi-0.dtd"
   xmlns:inkscape="http://www.inkscape.org/namespaces/inkscape"
   version="1.1"
   id="Capa_1"
   x="0px"
   y="0px"
   viewBox="0 0 512 512"
   style="enable-background:new 0 0 512 512;"
   xml:space="preserve"
   sodipodi:docname="read.svg"
   inkscape:version="0.92.4 (5da689c313, 2019-01-14)"><metadata
   id="metadata43"><rdf:RDF><cc:Work
       rdf:about=""><dc:format>image/svg+xml</dc:format><dc:type
         rdf:resource="http://purl.org/dc/dcmitype/StillImage" /><dc:title></dc:title></cc:Work></rdf:RDF></metadata><defs
   id="defs41" /><sodipodi:namedview
   pagecolor="#ffffff"
   bordercolor="#666666"
   borderopacity="1"
   objecttolerance="10"
   gridtolerance="10"
   guidetolerance="10"
   inkscape:pageopacity="0"
   inkscape:pageshadow="2"
   inkscape:window-width="1920"
   inkscape:window-height="1017"
   id="namedview39"
   showgrid="false"
   inkscape:zoom="0.4609375"
   inkscape:cx="256"
   inkscape:cy="256"
   inkscape:window-x="-8"
   inkscape:window-y="-8"
   inkscape:window-maximized="1"
   inkscape:current-layer="Capa_1" />
<g
   id="g6"
   style="fill:#ffffff">
	<g
   id="g4"
   style="fill:#ffffff">
		<path
   d="M425.501,177.512c-5.906-3.644-13.283-3.974-19.496-0.877l-39.833,19.878c-13.01-10.154-27.26-18.395-42.351-24.561    c19.491-18.144,31.701-43.985,31.701-72.621C355.522,44.56,310.877,0,256.001,0S156.48,44.56,156.48,99.33    c0,28.635,12.208,54.473,31.697,72.617c-15.094,6.166-29.346,14.407-42.354,24.562l-39.825-19.873    c-6.211-3.099-13.588-2.769-19.496,0.876c-5.908,3.644-9.504,10.081-9.504,17.013V412.68c0,7.575,4.288,14.501,11.077,17.889    l158.964,79.33c5.61,2.802,12.302,2.802,17.923,0l158.964-79.33c6.789-3.388,11.077-10.313,11.077-17.889V194.526    C435.004,187.594,431.408,181.157,425.501,177.512z M256.001,40.001c32.777,0,59.443,26.615,59.443,59.329    c0,32.714-26.667,59.328-59.443,59.328s-59.443-26.615-59.443-59.328C196.558,66.615,223.224,40.001,256.001,40.001z     M235.961,459.649L117.075,400.32V226.886l118.886,59.328V459.649z M256.002,251.493l-69.102-34.485    c20.86-11.951,44.603-18.349,69.101-18.349c24.49,0,48.23,6.399,69.093,18.354L256.002,251.493z M394.926,400.32L276.04,459.649    V286.215l118.886-59.331V400.32z"
   id="path2"
   style="fill:#ffffff" />
	</g>
</g>
<g
   id="g8">
</g>
<g
   id="g10">
</g>
<g
   id="g12">
</g>
<g
   id="g14">
</g>
<g
   id="g16">
</g>
<g
   id="g18">
</g>
<g
   id="g20">
</g>
<g
   id="g22">
</g>
<g
   id="g24">
</g>
<g
   id="g26">
</g>
<g
   id="g28">
</g>
<g
   id="g30">
</g>
<g
   id="g32">
</g>
<g
   id="g34">
</g>
<g
   id="g36">
</g>
</svg>