<?xml version="1.0" encoding="UTF-8" standalone="no"?>
<svg
   xmlns:dc="http://purl.org/dc/elements/1.1/"
   xmlns:cc="http://creativecommons.org/ns#"
   xmlns:rdf="http://www.w3.org/1999/02/22-rdf-syntax-ns#"
   xmlns:svg="http://www.w3.org/2000/svg"
   xmlns="http://www.w3.org/2000/svg"
   xmlns:sodipodi="http://sodipodi.sourceforge.net/DTD/sodipodi-0.dtd"
   xmlns:inkscape="http://www.inkscape.org/namespaces/inkscape"
   id="Layer_1"
   data-name="Layer 1"
   viewBox="0 0 512 512"
   version="1.1"
   sodipodi:docname="return.svg"
   inkscape:version="0.92.4 (5da689c313, 2019-01-14)">
  <metadata
     id="metadata11">
    <rdf:RDF>
      <cc:Work
         rdf:about="">
        <dc:format>image/svg+xml</dc:format>
        <dc:type
           rdf:resource="http://purl.org/dc/dcmitype/StillImage" />
      </cc:Work>
    </rdf:RDF>
  </metadata>
  <defs
     id="defs9" />
  <sodipodi:namedview
     pagecolor="#ffffff"
     bordercolor="#666666"
     borderopacity="1"
     objecttolerance="10"
     gridtolerance="10"
     guidetolerance="10"
     inkscape:pageopacity="0"
     inkscape:pageshadow="2"
     inkscape:window-width="2560"
     inkscape:window-height="1017"
     id="namedview7"
     showgrid="false"
     inkscape:zoom="0.65186406"
     inkscape:cx="-57.039684"
     inkscape:cy="378.70322"
     inkscape:window-x="1912"
     inkscape:window-y="-8"
     inkscape:window-maximized="1"
     inkscape:current-layer="Layer_1" />
  <title
     id="title2">return-arrow-left-glyph</title>
  <path
     style="opacity:1;vector-effect:none;fill:#ffffff;fill-opacity:1;stroke:none;stroke-width:6.31054258;stroke-linecap:butt;stroke-linejoin:miter;stroke-miterlimit:4;stroke-dasharray:none;stroke-dashoffset:0;stroke-opacity:0.89898993"
     d="M 183.8344,20.456326 C 173.4404,20.30271 163.42672,24.36248 156.07434,31.711071 L 40.681561,147.10385 c -1.794809,1.80172 -3.407278,3.7763 -4.813898,5.895 -0.613024,0.93757 -1.047298,1.96684 -1.588202,2.94046 -1.501278,2.31002 -2.564857,4.87647 -3.137656,7.57125 -0.324542,1.09983 -0.73754,2.16375 -0.971931,3.29965 -0.989385,4.9753 -0.989385,10.09676 0,15.07206 0.216361,1.15393 0.647389,2.19981 0.971931,3.29964 0.572385,2.69601 1.635982,5.26368 3.137656,7.57476 0.522874,0.97363 0.957147,1.99938 1.588202,2.93695 1.406439,2.11993 3.018909,4.0957 4.813898,5.89853 L 156.07434,316.98493 c 15.0117,15.07679 39.41138,15.10315 54.45564,0.059 15.04426,-15.04426 15.0179,-39.44394 -0.059,-54.45564 l -49.72722,-49.7272 h 157.15081 c 53.06373,0.0649 96.04585,43.09985 96.04585,96.16359 0,53.06373 -42.98212,96.0986 -96.04585,96.16358 h -57.69639 c -21.21577,0.0411 -38.39276,17.2514 -38.39276,38.46719 0,21.21579 17.17699,38.4261 38.39276,38.46719 h 57.69639 c 95.59457,0 173.0891,-77.49467 173.0891,-173.08917 0,-95.59449 -77.49453,-173.08916 -173.0891,-173.08916 H 160.7438 l 49.72722,-49.836393 c 24.02799,-24.040626 7.34922,-65.148763 -26.63669,-65.651479 z"
     id="path818"
     inkscape:connector-curvature="0"
     sodipodi:nodetypes="cccccccccccccscccsccscsssccc" />
</svg>
