<?xml version="1.0" encoding="UTF-8" standalone="no"?>
<!-- Generator: Adobe Illustrator 19.0.0, SVG Export Plug-In . SVG Version: 6.00 Build 0)  -->

<svg
   xmlns:dc="http://purl.org/dc/elements/1.1/"
   xmlns:cc="http://creativecommons.org/ns#"
   xmlns:rdf="http://www.w3.org/1999/02/22-rdf-syntax-ns#"
   xmlns:svg="http://www.w3.org/2000/svg"
   xmlns="http://www.w3.org/2000/svg"
   xmlns:sodipodi="http://sodipodi.sourceforge.net/DTD/sodipodi-0.dtd"
   xmlns:inkscape="http://www.inkscape.org/namespaces/inkscape"
   version="1.1"
   id="Layer_1"
   x="0px"
   y="0px"
   viewBox="0 0 330 330"
   style="enable-background:new 0 0 330 330;"
   xml:space="preserve"
   sodipodi:docname="video.svg"
   inkscape:version="0.92.4 (5da689c313, 2019-01-14)"><metadata
   id="metadata38"><rdf:RDF><cc:Work
       rdf:about=""><dc:format>image/svg+xml</dc:format><dc:type
         rdf:resource="http://purl.org/dc/dcmitype/StillImage" /></cc:Work></rdf:RDF></metadata><defs
   id="defs36" /><sodipodi:namedview
   pagecolor="#ffffff"
   bordercolor="#666666"
   borderopacity="1"
   objecttolerance="10"
   gridtolerance="10"
   guidetolerance="10"
   inkscape:pageopacity="0"
   inkscape:pageshadow="2"
   inkscape:window-width="1326"
   inkscape:window-height="731"
   id="namedview34"
   showgrid="false"
   inkscape:zoom="0.71515152"
   inkscape:cx="165"
   inkscape:cy="165"
   inkscape:window-x="0"
   inkscape:window-y="0"
   inkscape:window-maximized="0"
   inkscape:current-layer="Layer_1" />
<path
   id="XMLID_501_"
   d="M322.009,53.912c-4.915-2.598-10.866-2.264-15.459,0.868l-80.898,55.158V67.174c0-8.284-6.716-15-15-15H15  c-8.284,0-15,6.716-15,15v195.652c0,8.284,6.716,15,15,15h195.652c8.284,0,15-6.716,15-15v-42.763l80.898,55.157  c2.538,1.73,5.489,2.607,8.451,2.607c2.4,0,4.808-0.575,7.008-1.738c4.916-2.598,7.991-7.702,7.991-13.262V67.174  C330,61.614,326.925,56.51,322.009,53.912z M195.652,247.826H30V82.174h165.652v56.146v53.36V247.826z M300,234.444l-74.348-50.691  v-37.505L300,95.556V234.444z"
   style="fill:#ffffff" />
<g
   id="g3">
</g>
<g
   id="g5">
</g>
<g
   id="g7">
</g>
<g
   id="g9">
</g>
<g
   id="g11">
</g>
<g
   id="g13">
</g>
<g
   id="g15">
</g>
<g
   id="g17">
</g>
<g
   id="g19">
</g>
<g
   id="g21">
</g>
<g
   id="g23">
</g>
<g
   id="g25">
</g>
<g
   id="g27">
</g>
<g
   id="g29">
</g>
<g
   id="g31">
</g>
</svg>